<svg xmlns="http://www.w3.org/2000/svg" xmlns:xlink="http://www.w3.org/1999/xlink" width="500" zoomAndPan="magnify" viewBox="0 0 375 374.999991" height="500" preserveAspectRatio="xMidYMid meet" version="1.0"><defs><clipPath id="dc3080a8f5"><path d="M 91 72 L 338 72 L 338 341 L 91 341 Z M 91 72 " clip-rule="nonzero"/></clipPath><clipPath id="6618cd157d"><path d="M 49.394531 124.789062 L 175.710938 29.457031 L 342.425781 250.355469 L 216.113281 345.6875 Z M 49.394531 124.789062 " clip-rule="nonzero"/></clipPath><clipPath id="129d380b2f"><path d="M 49.394531 124.789062 L 175.710938 29.457031 L 342.425781 250.355469 L 216.113281 345.6875 Z M 49.394531 124.789062 " clip-rule="nonzero"/></clipPath><clipPath id="8b8d422817"><path d="M 49.394531 124.789062 L 175.710938 29.457031 L 342.425781 250.355469 L 216.113281 345.6875 Z M 49.394531 124.789062 " clip-rule="nonzero"/></clipPath><clipPath id="fff21d3ce4"><path d="M 89 70 L 261 70 L 261 252 L 89 252 Z M 89 70 " clip-rule="nonzero"/></clipPath><clipPath id="c8eb1067d2"><path d="M 49.394531 124.789062 L 175.710938 29.457031 L 342.425781 250.355469 L 216.113281 345.6875 Z M 49.394531 124.789062 " clip-rule="nonzero"/></clipPath><clipPath id="4a37144a2f"><path d="M 49.394531 124.789062 L 175.710938 29.457031 L 342.425781 250.355469 L 216.113281 345.6875 Z M 49.394531 124.789062 " clip-rule="nonzero"/></clipPath><clipPath id="952c21bf20"><path d="M 49.394531 124.789062 L 175.710938 29.457031 L 342.425781 250.355469 L 216.113281 345.6875 Z M 49.394531 124.789062 " clip-rule="nonzero"/></clipPath><clipPath id="5e93ec5c75"><path d="M 195 209 L 325 209 L 325 327 L 195 327 Z M 195 209 " clip-rule="nonzero"/></clipPath><clipPath id="acf5154664"><path d="M 49.394531 124.789062 L 175.710938 29.457031 L 342.425781 250.355469 L 216.113281 345.6875 Z M 49.394531 124.789062 " clip-rule="nonzero"/></clipPath><clipPath id="65514f3ca6"><path d="M 49.394531 124.789062 L 175.710938 29.457031 L 342.425781 250.355469 L 216.113281 345.6875 Z M 49.394531 124.789062 " clip-rule="nonzero"/></clipPath><clipPath id="c598a164d5"><path d="M 49.394531 124.789062 L 175.710938 29.457031 L 342.425781 250.355469 L 216.113281 345.6875 Z M 49.394531 124.789062 " clip-rule="nonzero"/></clipPath><clipPath id="4159fc64ce"><path d="M 209 240 L 340 240 L 340 343 L 209 343 Z M 209 240 " clip-rule="nonzero"/></clipPath><clipPath id="d8961c7460"><path d="M 49.394531 124.789062 L 175.710938 29.457031 L 342.425781 250.355469 L 216.113281 345.6875 Z M 49.394531 124.789062 " clip-rule="nonzero"/></clipPath><clipPath id="2c8e934f9c"><path d="M 49.394531 124.789062 L 175.710938 29.457031 L 342.425781 250.355469 L 216.113281 345.6875 Z M 49.394531 124.789062 " clip-rule="nonzero"/></clipPath><clipPath id="396b155116"><path d="M 49.394531 124.789062 L 175.710938 29.457031 L 342.425781 250.355469 L 216.113281 345.6875 Z M 49.394531 124.789062 " clip-rule="nonzero"/></clipPath><clipPath id="46c91fd8b2"><path d="M 183 194 L 271 194 L 271 265 L 183 265 Z M 183 194 " clip-rule="nonzero"/></clipPath><clipPath id="9d499fd450"><path d="M 49.394531 124.789062 L 175.710938 29.457031 L 342.425781 250.355469 L 216.113281 345.6875 Z M 49.394531 124.789062 " clip-rule="nonzero"/></clipPath><clipPath id="f4c0c5cf97"><path d="M 49.394531 124.789062 L 175.710938 29.457031 L 342.425781 250.355469 L 216.113281 345.6875 Z M 49.394531 124.789062 " clip-rule="nonzero"/></clipPath><clipPath id="eea3246250"><path d="M 49.394531 124.789062 L 175.710938 29.457031 L 342.425781 250.355469 L 216.113281 345.6875 Z M 49.394531 124.789062 " clip-rule="nonzero"/></clipPath><clipPath id="34fe4026f4"><path d="M 113 123 L 120 123 L 120 133 L 113 133 Z M 113 123 " clip-rule="nonzero"/></clipPath><clipPath id="95abc75f62"><path d="M 49.394531 124.789062 L 175.710938 29.457031 L 342.425781 250.355469 L 216.113281 345.6875 Z M 49.394531 124.789062 " clip-rule="nonzero"/></clipPath><clipPath id="b422c458d9"><path d="M 49.394531 124.789062 L 175.710938 29.457031 L 342.425781 250.355469 L 216.113281 345.6875 Z M 49.394531 124.789062 " clip-rule="nonzero"/></clipPath><clipPath id="e2b1563eb3"><path d="M 49.394531 124.789062 L 175.710938 29.457031 L 342.425781 250.355469 L 216.113281 345.6875 Z M 49.394531 124.789062 " clip-rule="nonzero"/></clipPath><clipPath id="6f5a93a711"><path d="M 97 167 L 102 167 L 102 176 L 97 176 Z M 97 167 " clip-rule="nonzero"/></clipPath><clipPath id="f67af79368"><path d="M 49.394531 124.789062 L 175.710938 29.457031 L 342.425781 250.355469 L 216.113281 345.6875 Z M 49.394531 124.789062 " clip-rule="nonzero"/></clipPath><clipPath id="7e4ca97f1e"><path d="M 49.394531 124.789062 L 175.710938 29.457031 L 342.425781 250.355469 L 216.113281 345.6875 Z M 49.394531 124.789062 " clip-rule="nonzero"/></clipPath><clipPath id="98d93dd0cc"><path d="M 49.394531 124.789062 L 175.710938 29.457031 L 342.425781 250.355469 L 216.113281 345.6875 Z M 49.394531 124.789062 " clip-rule="nonzero"/></clipPath></defs><rect x="-37.5" width="450" fill="#ffffff" y="-37.499999" height="449.999989" fill-opacity="1"/><rect x="-37.5" width="450" fill="#ffffff" y="-37.499999" height="449.999989" fill-opacity="1"/><rect x="-37.5" width="450" fill="#000000" y="-37.499999" height="449.999989" fill-opacity="1"/><path fill="#ff1616" d="M 183.183594 34.867188 L 183.183594 95.554688 C 135.851562 97.75 97.75 135.851562 95.554688 183.183594 L 34.867188 183.183594 C 37.109375 102.28125 102.277344 37.109375 183.183594 34.867188 Z M 279.425781 183.183594 C 277.234375 135.851562 239.132812 97.75 191.796875 95.554688 L 191.796875 34.867188 C 272.703125 37.109375 337.875 102.28125 340.117188 183.183594 Z M 191.796875 340.117188 L 191.796875 279.425781 C 239.132812 277.234375 277.234375 239.132812 279.425781 191.800781 L 340.117188 191.800781 C 337.875 272.703125 272.703125 337.875 191.796875 340.117188 Z M 160.859375 191.800781 C 162.703125 203.230469 171.75 212.28125 183.183594 214.125 L 183.183594 270.808594 C 140.535156 268.640625 106.34375 234.445312 104.171875 191.800781 Z M 183.183594 160.855469 C 171.75 162.703125 162.699219 171.75 160.859375 183.183594 L 104.171875 183.183594 C 106.34375 140.539062 140.535156 106.34375 183.183594 104.175781 Z M 214.125 183.183594 C 212.28125 171.75 203.230469 162.703125 191.796875 160.855469 L 191.796875 104.171875 C 234.445312 106.34375 268.640625 140.539062 270.808594 183.183594 Z M 191.796875 214.125 C 203.230469 212.28125 212.28125 203.230469 214.125 191.800781 L 270.808594 191.800781 C 268.640625 234.445312 234.445312 268.640625 191.796875 270.808594 Z M 169.125 187.492188 C 169.125 186.007812 169.320312 184.570312 169.65625 183.183594 C 171.261719 176.507812 176.507812 171.261719 183.183594 169.65625 C 184.566406 169.320312 186.003906 169.125 187.492188 169.125 C 188.976562 169.125 190.414062 169.320312 191.796875 169.65625 C 198.476562 171.261719 203.71875 176.507812 205.324219 183.183594 C 205.660156 184.570312 205.855469 186.007812 205.855469 187.492188 C 205.855469 188.980469 205.660156 190.417969 205.324219 191.800781 C 203.71875 198.476562 198.476562 203.71875 191.796875 205.324219 C 190.414062 205.660156 188.976562 205.855469 187.492188 205.855469 C 186.003906 205.855469 184.566406 205.660156 183.183594 205.324219 C 176.507812 203.71875 171.261719 198.476562 169.65625 191.800781 C 169.320312 190.417969 169.125 188.980469 169.125 187.492188 Z M 95.554688 191.800781 C 97.75 239.132812 135.851562 277.234375 183.183594 279.425781 L 183.183594 340.117188 C 102.277344 337.875 37.109375 272.703125 34.867188 191.800781 Z M 4.300781 191.800781 L 26.242188 191.800781 C 27.324219 233.269531 43.980469 272.101562 73.429688 301.550781 C 102.878906 331 141.710938 347.65625 183.183594 348.738281 L 183.183594 370.679688 C 183.183594 373.058594 185.113281 374.988281 187.492188 374.988281 C 189.871094 374.988281 191.796875 373.058594 191.796875 370.679688 L 191.796875 348.738281 C 233.269531 347.65625 272.101562 331 301.550781 301.550781 C 331.003906 272.101562 347.660156 233.269531 348.738281 191.800781 L 370.679688 191.800781 C 373.058594 191.800781 374.988281 189.871094 374.988281 187.492188 C 374.988281 185.113281 373.058594 183.183594 370.679688 183.183594 L 348.738281 183.183594 C 347.660156 141.710938 331.003906 102.882812 301.550781 73.433594 C 272.101562 43.984375 233.269531 27.324219 191.796875 26.246094 L 191.796875 4.304688 C 191.796875 1.925781 189.871094 -0.00390625 187.492188 -0.00390625 C 185.113281 -0.00390625 183.183594 1.925781 183.183594 4.304688 L 183.183594 26.246094 C 141.710938 27.324219 102.878906 43.984375 73.429688 73.433594 C 43.980469 102.882812 27.324219 141.710938 26.242188 183.183594 L 4.300781 183.183594 C 1.921875 183.183594 -0.00390625 185.113281 -0.00390625 187.492188 C -0.00390625 189.871094 1.921875 191.800781 4.300781 191.800781 " fill-opacity="1" fill-rule="nonzero"/><g clip-path="url(#dc3080a8f5)"><g clip-path="url(#6618cd157d)"><g clip-path="url(#129d380b2f)"><g clip-path="url(#8b8d422817)"><path fill="#ffffff" d="M 335.945312 244.613281 C 338.183594 247.578125 337.597656 251.792969 334.636719 254.027344 L 221.773438 339.207031 C 218.8125 341.441406 214.597656 340.851562 212.359375 337.886719 C 210.121094 334.921875 210.707031 330.703125 213.667969 328.46875 L 220.878906 323.027344 L 326.535156 243.289062 C 329.492188 241.050781 333.703125 241.640625 335.945312 244.613281 Z M 320.863281 233.769531 L 320.855469 233.765625 C 318.527344 230.679688 314.851562 228.964844 311.179688 229.261719 L 294.578125 227.535156 C 282.753906 226.308594 271.605469 220.261719 263.691406 210.78125 L 197.625 260.1875 C 205.476562 270.589844 208.789062 283.625 206.734375 296.015625 L 204.433594 309.910156 C 203.140625 313.355469 203.777344 317.359375 206.113281 320.449219 C 209.757812 325.28125 216.367188 326.433594 220.878906 323.027344 L 319.300781 248.679688 C 323.804688 245.273438 324.507812 238.597656 320.863281 233.769531 Z M 258.101562 197.957031 L 258.945312 197.320312 C 258.945312 197.320312 249.113281 193.824219 238.503906 184.949219 L 235.242188 178.429688 C 233.851562 172.15625 238.890625 169.199219 238.890625 169.199219 C 235.375 164.539062 233.550781 158.917969 231.242188 151.796875 C 227.921875 141.570312 223.789062 128.835938 212.761719 114.226562 C 192.847656 87.839844 150.539062 75.359375 136.996094 73.699219 C 134.84375 73.359375 128.957031 72.542969 122.054688 72.40625 L 117.691406 83.011719 C 118.488281 82.992188 119.277344 82.988281 120.066406 82.992188 L 117.625 83.164062 L 117.691406 83.011719 C 113.203125 83.132812 108.648438 83.660156 105.148438 85.011719 C 111.082031 90.363281 112.226562 95.738281 112.226562 95.738281 C 112.367188 100.285156 104.972656 112.632812 102.410156 125.34375 C 100.773438 133.496094 95.523438 154.78125 91.972656 169.019531 C 90.015625 176.855469 94.390625 183.828125 102.136719 185.21875 C 109.765625 186.589844 118.308594 182.117188 122.046875 174.734375 C 124.316406 170.261719 127.050781 165.699219 129.824219 163.003906 C 136.695312 156.339844 143.367188 155.109375 147.671875 148.054688 C 151.972656 141 152.074219 131.414062 152.074219 131.414062 C 170.867188 156.3125 135.113281 201.511719 159.71875 234.113281 C 172.628906 251.222656 189.421875 249.792969 189.421875 249.792969 L 187.746094 251.058594 C 184.832031 253.253906 184.25 257.40625 186.457031 260.328125 C 188.660156 263.25 192.808594 263.832031 195.726562 261.632812 L 197.636719 260.191406 L 266.089844 208.527344 C 269 206.332031 269.582031 202.179688 267.378906 199.257812 C 265.171875 196.335938 261.015625 195.761719 258.101562 197.957031 Z M 258.101562 197.957031 " fill-opacity="1" fill-rule="nonzero"/></g></g></g></g><g clip-path="url(#fff21d3ce4)"><g clip-path="url(#c8eb1067d2)"><g clip-path="url(#4a37144a2f)"><g clip-path="url(#952c21bf20)"><path fill="#010101" d="M 173.179688 83.136719 C 158.957031 76.75 144.859375 72.945312 137.246094 72.011719 C 135.007812 71.664062 129.054688 70.835938 122.074219 70.699219 C 121.367188 70.683594 120.730469 71.105469 120.464844 71.75 L 116.519531 81.339844 C 112.234375 81.519531 107.929688 82.097656 104.523438 83.414062 C 103.964844 83.628906 103.5625 84.109375 103.457031 84.695312 C 103.351562 85.28125 103.550781 85.875 103.992188 86.277344 C 108.878906 90.679688 110.277344 95.113281 110.511719 95.945312 C 110.46875 97.765625 108.878906 101.632812 107.195312 105.71875 C 104.9375 111.207031 102.128906 118.03125 100.726562 125 C 99.050781 133.332031 93.476562 155.890625 90.304688 168.601562 C 89.226562 172.921875 89.851562 177.183594 92.0625 180.597656 C 94.207031 183.914062 97.679688 186.144531 101.828125 186.890625 C 110.164062 188.382812 119.507812 183.496094 123.558594 175.503906 C 126.242188 170.210938 128.75 166.414062 131.003906 164.226562 C 133.765625 161.546875 136.488281 159.789062 139.117188 158.089844 C 142.871094 155.664062 146.410156 153.371094 149.113281 148.945312 C 151.554688 144.9375 152.714844 140.230469 153.269531 136.695312 C 158.253906 147.316406 155.570312 161.214844 152.742188 175.824219 C 148.992188 195.183594 144.753906 217.128906 158.34375 235.132812 C 171.671875 252.792969 188.832031 251.546875 189.550781 251.480469 C 189.871094 251.453125 190.175781 251.335938 190.433594 251.140625 L 259.960938 198.667969 C 260.460938 198.289062 260.714844 197.664062 260.617188 197.042969 C 260.523438 196.421875 260.09375 195.910156 259.496094 195.699219 C 259.367188 195.652344 249.929688 192.222656 239.730469 183.742188 C 237.304688 180.476562 236.308594 177.539062 236.792969 175.007812 C 237.34375 172.128906 239.71875 170.65625 239.730469 170.652344 C 240.152344 170.402344 240.449219 169.992188 240.539062 169.511719 C 240.632812 169.039062 240.523438 168.542969 240.226562 168.148438 C 236.882812 163.71875 235.097656 158.21875 232.835938 151.25 C 229.476562 140.902344 225.300781 128.019531 214.101562 113.183594 C 203.089844 98.589844 185.769531 88.785156 173.179688 83.136719 Z M 188.800781 248.121094 C 186.046875 248.207031 172.191406 247.832031 161.066406 233.09375 C 148.398438 216.304688 152.308594 196.070312 156.097656 176.492188 C 159.46875 159.070312 162.648438 142.613281 153.425781 130.394531 C 152.984375 129.808594 152.222656 129.570312 151.535156 129.800781 C 150.84375 130.03125 150.371094 130.671875 150.355469 131.398438 C 150.359375 131.492188 150.195312 140.625 146.199219 147.183594 C 143.902344 150.941406 140.824219 152.941406 137.261719 155.238281 C 134.621094 156.945312 131.625 158.882812 128.625 161.789062 C 126.101562 164.242188 123.371094 168.339844 120.511719 173.96875 C 117.109375 180.667969 109.335938 184.785156 102.417969 183.542969 C 99.207031 182.964844 96.550781 181.265625 94.917969 178.757812 C 93.226562 176.140625 92.761719 172.832031 93.609375 169.445312 C 97.488281 153.886719 102.457031 133.667969 104.0625 125.691406 C 105.402344 119.042969 108.140625 112.382812 110.339844 107.035156 C 112.457031 101.882812 113.984375 98.167969 113.90625 95.691406 C 113.90625 95.589844 113.890625 95.488281 113.871094 95.382812 C 113.824219 95.171875 112.835938 90.714844 108.339844 85.800781 C 110.957031 85.160156 117.910156 84.902344 118.328125 84.707031 C 126.550781 84.566406 134.46875 85.800781 134.59375 85.820312 C 134.617188 85.828125 134.644531 85.824219 134.667969 85.824219 C 145.703125 87.101562 183.222656 98.097656 200.050781 120.390625 C 209.507812 132.925781 213.003906 143.714844 216.097656 153.234375 C 218.582031 160.894531 220.730469 167.511719 225.367188 173.65625 C 236.128906 187.914062 249.699219 195.128906 255.523438 197.746094 L 188.792969 248.109375 Z M 229.609375 152.324219 C 231.75 158.933594 233.488281 164.277344 236.554688 168.867188 C 235.429688 169.921875 233.988281 171.71875 233.476562 174.3125 C 233.246094 175.460938 233.242188 176.644531 233.414062 177.851562 C 231.589844 175.949219 229.804688 173.875 228.097656 171.613281 C 223.808594 165.929688 221.746094 159.5625 219.351562 152.195312 C 216.175781 142.417969 212.582031 131.339844 202.777344 118.347656 C 185.308594 95.199219 146.554688 83.792969 135.101562 82.449219 C 134.386719 82.339844 127.746094 81.328125 120.246094 81.28125 L 123.179688 74.148438 C 129.441406 74.339844 134.695312 75.074219 136.785156 75.398438 C 149.882812 77 191.90625 89.433594 211.402344 115.265625 C 222.25 129.636719 226.332031 142.214844 229.609375 152.324219 Z M 229.609375 152.324219 " fill-opacity="1" fill-rule="nonzero"/></g></g></g></g><g clip-path="url(#5e93ec5c75)"><g clip-path="url(#acf5154664)"><g clip-path="url(#65514f3ca6)"><g clip-path="url(#c598a164d5)"><path fill="#010101" d="M 221.898438 324.390625 C 219.335938 326.324219 216.132812 327.074219 212.875 326.503906 C 209.660156 325.941406 206.769531 324.152344 204.746094 321.472656 C 202.113281 317.984375 201.363281 313.398438 202.777344 309.464844 L 205.050781 295.730469 C 207.027344 283.816406 203.828125 271.234375 196.265625 261.214844 C 195.992188 260.851562 195.871094 260.398438 195.941406 259.945312 C 196.007812 259.492188 196.222656 259.085938 196.605469 258.820312 L 262.660156 209.421875 C 263.390625 208.878906 264.410156 209 264.996094 209.695312 C 272.578125 218.78125 283.429688 224.667969 294.753906 225.839844 L 311.203125 227.550781 C 315.378906 227.273438 319.585938 229.25 322.21875 232.738281 C 326.425781 238.3125 325.578125 246.074219 320.324219 250.035156 Z M 199.992188 260.550781 C 207.390625 271.078125 210.449219 284.003906 208.417969 296.296875 L 206.113281 310.1875 C 206.09375 310.296875 206.066406 310.40625 206.03125 310.507812 C 204.949219 313.398438 205.5 316.8125 207.472656 319.421875 C 208.972656 321.414062 211.097656 322.734375 213.460938 323.148438 C 215.785156 323.554688 218.050781 323.023438 219.84375 321.667969 C 219.84375 321.667969 219.84375 321.667969 219.851562 321.664062 L 318.273438 247.316406 C 322.023438 244.488281 322.574219 238.867188 319.503906 234.800781 C 317.53125 232.1875 314.398438 230.71875 311.324219 230.96875 C 311.21875 230.976562 311.113281 230.972656 311.007812 230.964844 L 294.40625 229.242188 C 282.726562 228.027344 271.527344 222.175781 263.441406 213.109375 Z M 204.433594 309.910156 Z M 204.433594 309.910156 " fill-opacity="1" fill-rule="nonzero"/></g></g></g></g><g clip-path="url(#4159fc64ce)"><g clip-path="url(#d8961c7460)"><g clip-path="url(#2c8e934f9c)"><g clip-path="url(#396b155116)"><path fill="#010101" d="M 335.667969 255.390625 L 222.800781 340.570312 C 219.09375 343.367188 213.800781 342.625 211 338.910156 C 208.199219 335.199219 208.933594 329.90625 212.640625 327.109375 L 325.503906 241.925781 C 329.210938 239.128906 334.503906 239.875 337.308594 243.585938 C 340.109375 247.296875 339.371094 252.59375 335.667969 255.390625 Z M 214.691406 329.828125 C 212.488281 331.492188 212.050781 334.644531 213.714844 336.851562 C 215.382812 339.0625 218.539062 339.507812 220.742188 337.847656 L 333.609375 252.664062 C 335.8125 251 336.253906 247.847656 334.585938 245.640625 C 332.917969 243.433594 329.765625 242.988281 327.5625 244.652344 L 214.695312 329.832031 Z M 214.691406 329.828125 " fill-opacity="1" fill-rule="nonzero"/></g></g></g></g><g clip-path="url(#46c91fd8b2)"><g clip-path="url(#9d499fd450)"><g clip-path="url(#f4c0c5cf97)"><g clip-path="url(#eea3246250)"><path fill="#010101" d="M 267.105469 209.890625 L 196.746094 262.992188 C 193.085938 265.753906 187.855469 265.023438 185.085938 261.355469 C 182.316406 257.683594 183.042969 252.457031 186.707031 249.691406 L 257.070312 196.589844 C 260.726562 193.828125 265.960938 194.558594 268.726562 198.230469 C 271.496094 201.898438 270.765625 207.128906 267.105469 209.890625 Z M 188.769531 252.421875 C 186.609375 254.054688 186.179688 257.140625 187.8125 259.304688 C 189.445312 261.46875 192.53125 261.902344 194.691406 260.273438 L 265.054688 207.167969 C 267.214844 205.539062 267.644531 202.453125 266.011719 200.289062 C 264.378906 198.125 261.292969 197.691406 259.128906 199.320312 Z M 188.769531 252.421875 " fill-opacity="1" fill-rule="nonzero"/></g></g></g></g><g clip-path="url(#34fe4026f4)"><g clip-path="url(#95abc75f62)"><g clip-path="url(#b422c458d9)"><g clip-path="url(#e2b1563eb3)"><path fill="#010101" d="M 114.148438 132.050781 C 115.113281 132.886719 116.878906 130.957031 118.308594 129.125 C 119.734375 127.292969 120.101562 125.683594 119.074219 124.390625 C 118.277344 123.390625 116.550781 122.835938 115.128906 124.664062 C 113.691406 126.492188 112.597656 130.695312 114.148438 132.050781 Z M 114.148438 132.050781 " fill-opacity="1" fill-rule="nonzero"/></g></g></g></g><g clip-path="url(#6f5a93a711)"><g clip-path="url(#f67af79368)"><g clip-path="url(#7e4ca97f1e)"><g clip-path="url(#98d93dd0cc)"><path fill="#010101" d="M 100.449219 175.261719 C 99.695312 175.828125 98.625 175.675781 98.058594 174.925781 C 96.15625 172.40625 98.339844 169.074219 98.601562 168.707031 C 99.132812 167.929688 100.199219 167.730469 100.972656 168.269531 C 101.75 168.800781 101.941406 169.863281 101.417969 170.636719 C 100.921875 171.371094 100.523438 172.535156 100.78125 172.871094 C 101.347656 173.625 101.199219 174.695312 100.449219 175.261719 Z M 100.449219 175.261719 " fill-opacity="1" fill-rule="nonzero"/></g></g></g></g></svg>